PathFileType	4	(X/Y/Z)	D:\TRACE\v60_Jaco2_6-2-23\BothDRS_Motion3_2-v60.trc
DataRate	CameraRate	NumFrames	NumMarkers	Units	OrigDataRate	OrigDataStartFrame	OrigNumFrames
100.00	100.00	      20	9	mm	100.00	1751	      7000
Frame#	Time	front left toe			Front right toe			aft left toe			aft right toe			Arm			FL body			FR body			AL Body			AR Body			
		X1	Y1	Z1	X2	Y2	Z2	X3	Y3	Z3	X4	Y4	Z4	X5	Y5	Z5	X6	Y6	Z6	X7	Y7	Z7	X8	Y8	Z8	X9	Y9	Z9	

1751	17.500	-131.03026	11.08884	-432.83289	245.47328	94.55405	-428.86322	-132.16628	100.93233	194.32320	238.93056	14.30684	190.86018	55.54589	1129.98743	-783.16528	-20.99342	511.09818	-598.77997	138.13048	511.22650	-598.48358	-16.15830	563.63037	343.71194	135.50381	555.13495	344.26743	
1752	17.510	-131.10870	11.30538	-432.77518	243.27773	85.93497	-429.43713	-133.48973	93.65353	194.44785	238.92632	14.19404	190.84680	55.00127	1130.15356	-782.31042	-21.66651	511.37589	-598.40601	139.30739	511.32651	-598.23212	-15.88007	563.44708	344.14270	135.77806	555.07166	344.34326	
1753	17.520	-131.15871	11.45163	-432.71106	242.64456	77.76359	-428.43610	-134.47575	85.83669	194.67886	238.92563	14.07129	190.90453	54.34172	1130.51721	-781.86719	-22.02582	511.59937	-597.99823	138.93723	511.45840	-598.00592	-15.36239	563.31201	344.67139	136.46504	554.85864	344.80014	
1754	17.530	-131.14996	11.42770	-432.62219	241.24216	68.59359	-427.79028	-134.74359	77.59209	195.00212	239.01329	14.08442	190.92993	53.56820	1130.74719	-781.25616	-22.31644	511.69345	-597.70520	138.09804	511.52655	-597.61652	-15.08420	563.18652	345.02161	136.62746	554.60541	345.11285	
1755	17.540	-131.18883	11.33349	-432.46390	241.00830	60.30370	-427.13547	-135.40578	69.67946	196.13736	238.95117	14.02667	190.96819	52.92241	1130.89270	-780.75964	-22.91284	511.82510	-597.19507	136.63168	511.48032	-597.12885	-14.91945	562.92181	345.33304	136.88478	554.31299	345.40570	
1756	17.550	-131.22298	11.31421	-432.31421	240.56288	52.54920	-426.36459	-136.37448	62.19422	196.94547	239.01082	13.96704	190.97290	51.99123	1130.94397	-780.29297	-23.16946	511.67419	-596.69196	136.14679	511.38806	-596.66589	-14.74373	562.70203	345.76855	137.09880	553.97913	345.66357	
1757	17.560	-131.24174	11.36581	-432.21008	240.16205	44.87206	-425.12369	-136.27150	54.56540	198.15964	239.00966	13.90100	191.00928	51.84197	1130.99438	-779.71069	-23.50189	511.73239	-596.15070	137.49393	511.37756	-596.91974	-14.47744	562.48767	346.31140	137.25490	553.77075	346.01636	
1758	17.570	-131.26294	11.42401	-432.21555	240.27568	37.89443	-423.69617	-135.43819	46.68687	199.47269	238.95566	13.89333	191.01932	51.61773	1131.01685	-779.08508	-23.88351	511.84613	-595.82751	136.70857	511.67380	-596.40039	-14.19523	562.26477	346.76633	137.36983	553.57965	346.31631	
1759	17.580	-131.30632	11.46217	-432.13449	240.33287	31.42184	-422.60629	-135.12399	40.16232	200.68077	239.04240	13.93097	191.07625	51.45148	1131.15820	-778.67822	-24.23409	512.00879	-595.53088	136.21658	511.68530	-596.10907	-14.03051	561.96838	347.15994	137.57571	553.37964	346.63000	
1760	17.590	-131.38953	11.36460	-431.96820	240.41643	24.81221	-421.62372	-135.58818	33.86348	201.86800	238.99168	13.85615	191.08722	51.44589	1131.23071	-778.10120	-24.36186	511.85254	-594.95966	134.73169	511.57071	-595.44751	-14.12852	561.74237	347.44238	137.66458	553.07300	346.97623	
1761	17.600	-131.49910	11.31658	-431.86621	241.14647	18.47245	-420.27313	-135.51221	26.96313	203.10274	238.97693	13.85492	191.11884	51.24251	1131.31970	-777.43585	-24.73503	511.94882	-594.56055	134.57074	511.37881	-594.96674	-14.05258	561.62878	347.85809	137.94632	552.83820	347.28284	
1762	17.610	-131.56825	11.36971	-431.75772	241.25980	16.79659	-422.12671	-135.46899	19.82904	203.32578	238.94913	13.82073	191.12079	51.11330	1131.51709	-776.90277	-25.24339	512.10327	-594.14410	134.42107	511.67856	-595.05872	-13.79060	561.54071	348.32190	138.12489	552.63885	347.66943	
1763	17.620	-131.52638	11.46512	-431.80206	241.27751	13.74787	-421.70981	-135.21974	19.33503	202.15939	238.98637	13.82535	191.20018	50.76809	1131.64099	-776.52600	-25.49365	512.57367	-593.98993	133.80391	512.39185	-594.59155	-13.56773	561.50952	348.79428	138.28929	552.57855	348.13702	
1764	17.630	-131.47733	11.73112	-431.65619	241.26561	13.76916	-422.22705	-136.68616	18.68727	201.75140	238.76099	13.88001	191.26645	50.06348	1132.13855	-775.95874	-25.41134	513.30518	-593.13715	135.02353	513.06958	-594.29846	-13.22841	562.36096	349.24420	138.48703	553.51672	348.43607	
1765	17.640	-131.26990	12.02781	-431.83978	241.26219	14.93445	-421.72641	-136.72740	18.23422	202.48062	238.62227	14.31994	191.15361	49.26699	1132.99194	-775.56201	-25.83865	513.79303	-592.81958	134.74771	513.53094	-594.15405	-12.91895	563.94586	349.67993	138.92072	554.88776	348.82339	
1766	17.650	-131.25616	13.68580	-431.40848	241.21504	13.54698	-421.80591	-136.64793	17.89211	203.08412	238.37253	16.09013	191.43388	48.82839	1133.94727	-775.61896	-26.96059	514.72198	-592.49597	133.14830	514.03418	-593.33997	-12.53979	565.48230	350.22855	139.25084	556.08044	349.29279	
1767	17.660	-128.90028	17.90022	-428.82935	241.21405	13.54152	-421.87747	-136.57513	17.56851	203.03535	235.69850	18.42166	195.03976	48.25225	1134.67419	-775.92157	-27.43368	515.30420	-591.96527	132.15593	514.91058	-593.03088	-12.38597	566.18091	350.78409	139.27048	557.00897	349.60303	
1768	17.670	-125.16695	20.93632	-424.35526	241.19586	13.60200	-421.93042	-136.48726	17.61943	202.91869	232.44315	22.38805	199.40620	47.72404	1134.88049	-775.85736	-27.82075	516.25500	-591.68524	131.49677	515.81415	-592.64813	-12.20855	566.40790	351.13110	139.62325	557.22870	349.85837	
1769	17.680	-122.45069	27.51188	-421.97986	241.13576	13.47085	-421.94220	-136.49718	17.72811	203.01779	229.65149	30.84882	200.71487	47.16346	1134.98328	-775.32153	-28.10401	516.66925	-591.21136	133.43947	516.07190	-592.73096	-12.13692	566.57501	351.44974	139.73135	557.30164	350.07593	
1770	17.690	-122.23511	38.12577	-422.00684	241.09610	13.40046	-421.89465	-136.45448	17.71651	203.05962	228.06483	39.24934	201.05701	46.98478	1135.16406	-774.61139	-28.23836	516.90381	-590.71741	132.94571	516.31189	-592.31451	-12.07180	566.71741	351.91537	139.77629	557.33160	350.47855	
